<svg width="40" height="40" viewBox="0 0 40 40" fill="none" xmlns="http://www.w3.org/2000/svg">
<path opacity="0.2" d="M20 39.5C30.7696 39.5 39.5 30.7696 39.5 20C39.5 9.23045 30.7696 0.5 20 0.5C9.23045 0.5 0.5 9.23045 0.5 20C0.5 30.7696 9.23045 39.5 20 39.5Z" stroke="black"/>
<path d="M28.4 26H25.83C25.3647 26.036 24.9033 25.8929 24.54 25.6C23.54 24.94 22.67 23.22 21.96 23.44C21.25 23.66 21.27 25.21 21.27 25.21C21.2725 25.3912 21.2202 25.569 21.12 25.72C20.971 25.8508 20.7865 25.9343 20.59 25.96H19.43C18.5289 25.9459 17.6401 25.7479 16.8182 25.3782C15.9962 25.0085 15.2584 24.4749 14.65 23.81C12.21 21.27 10.05 16.22 10.05 16.22C10.05 16.22 9.93 15.89 10.05 15.73C10.2132 15.6117 10.4084 15.5454 10.61 15.54H13.36C13.5174 15.5693 13.6672 15.6305 13.8 15.72C13.9081 15.8088 13.9938 15.9219 14.05 16.05C14.336 16.7845 14.67 17.4994 15.05 18.19C16.2 20.19 16.73 20.61 17.13 20.4C17.7 20.09 17.53 17.58 17.53 17.58C17.5413 17.1262 17.4418 16.6766 17.24 16.27C17.1321 16.1451 17.0006 16.0428 16.853 15.969C16.7054 15.8952 16.5446 15.8514 16.38 15.84C16.23 15.84 16.48 15.46 16.81 15.3C17.586 15.0434 18.4048 14.9415 19.22 15C19.6738 14.9832 20.1278 15.0269 20.57 15.13C21.52 15.36 21.2 16.24 21.2 18.36C21.2 19.04 21.08 20 21.57 20.36C21.78 20.49 22.3 20.36 23.57 18.19C23.987 17.4633 24.3448 16.7042 24.64 15.92C24.6947 15.7965 24.7809 15.6896 24.89 15.61C25.0031 15.5489 25.1324 15.5244 25.26 15.54H28.16C28.16 15.54 29.03 15.43 29.16 15.83C29.29 16.23 28.83 17.2 27.65 18.83C25.7 21.43 25.49 21.18 27.1 22.68C27.8467 23.2995 28.4883 24.0357 29 24.86C29.74 25.87 28.4 26 28.4 26Z" fill="black"/>
</svg>
