<svg width="40" height="40" viewBox="0 0 40 40" fill="none" xmlns="http://www.w3.org/2000/svg">
<path d="M27.79 15.87C28.0314 17.2332 28.1486 18.6156 28.14 20C28.149 21.3815 28.0285 22.7609 27.78 24.12C27.685 24.4842 27.4953 24.8167 27.23 25.0837C26.9648 25.3507 26.6335 25.5426 26.27 25.64C21.8162 26.12 17.3238 26.12 12.87 25.64C12.5078 25.5398 12.1781 25.347 11.9133 25.0804C11.6484 24.8138 11.4577 24.4828 11.36 24.12C10.8799 21.3909 10.8799 18.599 11.36 15.87C11.4565 15.5077 11.647 15.1772 11.9121 14.9121C12.1772 14.6469 12.5077 14.4565 12.87 14.36C17.3238 13.88 21.8162 13.88 26.27 14.36C26.6342 14.455 26.9667 14.6447 27.2337 14.91C27.5007 15.1752 27.6926 15.5064 27.79 15.87V15.87ZM17.86 22.57L22.31 20L17.86 17.43V22.57Z" fill="black"/>
<path opacity="0.2" d="M20 39.5C30.7696 39.5 39.5 30.7696 39.5 20C39.5 9.23045 30.7696 0.5 20 0.5C9.23045 0.5 0.5 9.23045 0.5 20C0.5 30.7696 9.23045 39.5 20 39.5Z" stroke="black"/>
</svg>
