<svg width="40" height="40" viewBox="0 0 40 40" fill="none" xmlns="http://www.w3.org/2000/svg">
<path d="M8.33333 5C6.51157 5 5 6.51157 5 8.33333V31.6667C5 33.4885 6.51157 35 8.33333 35H11.6667H28.3333H31.6667C33.4885 35 35 33.4885 35 31.6667V8.33333C35 6.51157 33.4885 5 31.6667 5H8.33333ZM8.33333 8.33333H31.6667V31.6667H28.3333V30.6413C28.3333 28.797 27.1157 27.2965 25.5892 26.3867C24.0627 25.477 22.1285 25 20 25C17.8715 25 15.9373 25.477 14.4108 26.3867C12.8843 27.2965 11.6667 28.797 11.6667 30.6413V31.6667H8.33333V8.33333ZM20 11.6667C18.4722 11.6667 17.1143 12.2996 16.2533 13.2682C15.3923 14.2369 15 15.463 15 16.6667C15 17.8703 15.3923 19.0965 16.2533 20.0652C17.1143 21.0337 18.4722 21.6667 20 21.6667C21.5278 21.6667 22.8857 21.0337 23.7467 20.0652C24.6078 19.0965 25 17.8703 25 16.6667C25 15.463 24.6078 14.2369 23.7467 13.2682C22.8857 12.2996 21.5278 11.6667 20 11.6667ZM20 15C20.6945 15 21.0032 15.2004 21.2533 15.4818C21.5033 15.7631 21.6667 16.2037 21.6667 16.6667C21.6667 17.1297 21.5033 17.5702 21.2533 17.8515C21.0032 18.133 20.6945 18.3333 20 18.3333C19.3055 18.3333 18.9968 18.133 18.7467 17.8515C18.4967 17.5702 18.3333 17.1297 18.3333 16.6667C18.3333 16.2037 18.4967 15.7631 18.7467 15.4818C18.9968 15.2004 19.3055 15 20 15ZM20 28.3333C21.6098 28.3333 23.0112 28.7282 23.8835 29.248C24.7557 29.7678 25 30.2572 25 30.6413V31.6667H15V30.6413C15 30.2572 15.2443 29.7678 16.1165 29.248C16.9888 28.7282 18.3902 28.3333 20 28.3333Z" fill="#FEFDFD"/>
</svg>
