<svg width="40" height="40" viewBox="0 0 40 40" fill="none" xmlns="http://www.w3.org/2000/svg">
<path d="M19.23 20.32C20.6234 20.3441 21.9694 19.8143 22.9725 18.8468C23.9756 17.8793 24.5537 16.5534 24.58 15.16C24.5204 13.7824 23.9312 12.4811 22.9354 11.5273C21.9395 10.5736 20.6139 10.0413 19.235 10.0413C17.8561 10.0413 16.5305 10.5736 15.5346 11.5273C14.5388 12.4811 13.9496 13.7824 13.89 15.16C13.9163 16.5516 14.4931 17.8761 15.494 18.8432C16.4949 19.8104 17.8383 20.3414 19.23 20.32V20.32ZM19.23 13.02C19.649 13.0376 20.0535 13.178 20.3934 13.4236C20.7333 13.6692 20.9935 14.0093 21.1418 14.4015C21.29 14.7938 21.3198 15.2209 21.2273 15.63C21.1349 16.039 20.9243 16.4118 20.6217 16.7022C20.3192 16.9925 19.938 17.1876 19.5255 17.2631C19.113 17.3387 18.6874 17.2913 18.3016 17.1271C17.9158 16.9628 17.5867 16.6888 17.3553 16.339C17.1239 15.9893 17.0004 15.5794 17 15.16C17.0026 14.8712 17.0625 14.5857 17.1764 14.3202C17.2902 14.0547 17.4557 13.8145 17.6632 13.6136C17.8707 13.4126 18.116 13.2549 18.385 13.1495C18.654 13.0442 18.9412 12.9934 19.23 13V13.02Z" fill="black"/>
<path d="M21.39 24.53C22.4879 24.291 23.5388 23.872 24.5 23.29C24.6728 23.1895 24.8234 23.0549 24.9427 22.8945C25.0621 22.7341 25.1477 22.5512 25.1944 22.3569C25.2412 22.1625 25.248 21.9606 25.2146 21.7635C25.1812 21.5664 25.1082 21.3781 25 21.21C24.7711 20.8672 24.4188 20.6259 24.0163 20.5365C23.6139 20.447 23.1925 20.5164 22.84 20.73C21.7524 21.3822 20.5081 21.7267 19.24 21.7267C17.9719 21.7267 16.7276 21.3822 15.64 20.73C15.2875 20.5164 14.8661 20.447 14.4636 20.5365C14.0612 20.6259 13.7089 20.8672 13.48 21.21C13.3726 21.3794 13.3008 21.5687 13.2688 21.7667C13.2369 21.9646 13.2455 22.167 13.2941 22.3615C13.3427 22.556 13.4304 22.7386 13.5517 22.8982C13.6731 23.0578 13.8256 23.1911 14 23.29C14.9581 23.871 16.0055 24.2899 17.1 24.53L14.1 27.42C13.9554 27.5582 13.8403 27.7243 13.7617 27.9082C13.683 28.0921 13.6425 28.29 13.6425 28.49C13.6425 28.69 13.683 28.888 13.7617 29.0719C13.8403 29.2558 13.9554 29.4218 14.1 29.56C14.3988 29.842 14.7941 29.9991 15.205 29.9991C15.6159 29.9991 16.0112 29.842 16.31 29.56L19.25 26.72L22.19 29.56C22.4888 29.842 22.8841 29.9991 23.295 29.9991C23.7059 29.9991 24.1012 29.842 24.4 29.56C24.5459 29.4226 24.6621 29.2568 24.7416 29.0728C24.821 28.8888 24.862 28.6905 24.862 28.49C24.862 28.2896 24.821 28.0913 24.7416 27.9073C24.6621 27.7233 24.5459 27.5575 24.4 27.42L21.39 24.53Z" fill="black"/>
<path opacity="0.2" d="M20 39.5C30.7696 39.5 39.5 30.7696 39.5 20C39.5 9.23045 30.7696 0.5 20 0.5C9.23045 0.5 0.5 9.23045 0.5 20C0.5 30.7696 9.23045 39.5 20 39.5Z" stroke="black"/>
</svg>
